<svg width="45" height="45" viewBox="0 0 45 45" fill="none" xmlns="http://www.w3.org/2000/svg">
<path d="M26.25 33.75V11.25C26.25 10.2554 25.8549 9.30161 25.1516 8.59835C24.4484 7.89509 23.4946 7.5 22.5 7.5H7.5C6.50544 7.5 5.55161 7.89509 4.84835 8.59835C4.14509 9.30161 3.75 10.2554 3.75 11.25V31.875C3.75 32.3723 3.94754 32.8492 4.29917 33.2008C4.65081 33.5525 5.12772 33.75 5.625 33.75H9.375" stroke="white" stroke-width="2.66667" stroke-linecap="round" stroke-linejoin="round"/>
<path d="M28.125 33.75H16.875" stroke="white" stroke-width="2.66667" stroke-linecap="round" stroke-linejoin="round"/>
<path d="M35.625 33.75H39.375C39.8723 33.75 40.3492 33.5525 40.7008 33.2008C41.0525 32.8492 41.25 32.3723 41.25 31.875V25.0313C41.2492 24.6057 41.1038 24.1931 40.8375 23.8613L34.3125 15.705C34.1371 15.4854 33.9147 15.308 33.6615 15.186C33.4084 15.064 33.131 15.0004 32.85 15H26.25" stroke="white" stroke-width="2.66667" stroke-linecap="round" stroke-linejoin="round"/>
<path d="M31.875 37.5C33.9461 37.5 35.625 35.8211 35.625 33.75C35.625 31.6789 33.9461 30 31.875 30C29.8039 30 28.125 31.6789 28.125 33.75C28.125 35.8211 29.8039 37.5 31.875 37.5Z" stroke="white" stroke-width="2.66667" stroke-linecap="round" stroke-linejoin="round"/>
<path d="M13.125 37.5C15.1961 37.5 16.875 35.8211 16.875 33.75C16.875 31.6789 15.1961 30 13.125 30C11.0539 30 9.375 31.6789 9.375 33.75C9.375 35.8211 11.0539 37.5 13.125 37.5Z" stroke="white" stroke-width="2.66667" stroke-linecap="round" stroke-linejoin="round"/>
</svg>
