<svg width="20" height="20" viewBox="0 0 20 20" fill="none" xmlns="http://www.w3.org/2000/svg">
<path d="M14.167 1.6665H5.83366C3.53247 1.6665 1.66699 3.53198 1.66699 5.83317V14.1665C1.66699 16.4677 3.53247 18.3332 5.83366 18.3332H14.167C16.4682 18.3332 18.3337 16.4677 18.3337 14.1665V5.83317C18.3337 3.53198 16.4682 1.6665 14.167 1.6665Z" stroke="#D1D5DC" stroke-width="1.66667" stroke-linecap="round" stroke-linejoin="round"/>
<path d="M13.3337 9.47476C13.4366 10.1683 13.3181 10.8766 12.9952 11.4989C12.6723 12.1213 12.1614 12.6259 11.5351 12.9412C10.9088 13.2564 10.1991 13.3661 9.5069 13.2547C8.81468 13.1433 8.17521 12.8165 7.67944 12.3207C7.18367 11.825 6.85685 11.1855 6.74546 10.4933C6.63408 9.80106 6.74379 9.09134 7.05901 8.46507C7.37423 7.83881 7.8789 7.32788 8.50123 7.00496C9.12356 6.68205 9.83187 6.56359 10.5254 6.66643C11.2328 6.77133 11.8878 7.10098 12.3935 7.60669C12.8992 8.11239 13.2288 8.76733 13.3337 9.47476Z" stroke="#D1D5DC" stroke-width="1.66667" stroke-linecap="round" stroke-linejoin="round"/>
<path d="M14.583 5.4165H14.5913" stroke="#D1D5DC" stroke-width="1.66667" stroke-linecap="round" stroke-linejoin="round"/>
</svg>
